<?xml version="1.0" encoding="UTF-8" standalone="no"?>
<svg
   width="174.64964"
   height="174.64966"
   viewBox="0 0 174.64965 174.64965"
   version="1.1"
   id="svg5"
   sodipodi:docname="BOWDEN.svg"
   inkscape:export-filename="../Desktop/BOWDEN.svg"
   inkscape:export-xdpi="96"
   inkscape:export-ydpi="96"
   inkscape:version="1.2.2 (b0a8486, 2022-12-01)"
   xmlns:inkscape="http://www.inkscape.org/namespaces/inkscape"
   xmlns:sodipodi="http://sodipodi.sourceforge.net/DTD/sodipodi-0.dtd"
   xmlns="http://www.w3.org/2000/svg"
   xmlns:svg="http://www.w3.org/2000/svg">
  <defs
     id="defs9">
    <clipPath
       clipPathUnits="userSpaceOnUse"
       id="clipPath1837">
      <rect
         style="opacity:0.2;fill:none;stroke:#000000;stroke-width:0"
         id="rect1839"
         width="182.61424"
         height="316.82196"
         x="824.05768"
         y="-46.239658" />
    </clipPath>
    <clipPath
       clipPathUnits="userSpaceOnUse"
       id="clipPath1841">
      <rect
         style="opacity:0.2;fill:none;stroke:#000000;stroke-width:0"
         id="rect1843"
         width="174.64964"
         height="139.44894"
         x="807.34271"
         y="9.2088928" />
    </clipPath>
  </defs>
  <sodipodi:namedview
     id="namedview7"
     pagecolor="#ffffff"
     bordercolor="#000000"
     borderopacity="0.25"
     inkscape:showpageshadow="2"
     inkscape:pageopacity="0.0"
     inkscape:pagecheckerboard="0"
     inkscape:deskcolor="#d1d1d1"
     showgrid="false"
     inkscape:zoom="0.63937104"
     inkscape:cx="391.00926"
     inkscape:cy="75.073779"
     inkscape:window-width="1309"
     inkscape:window-height="456"
     inkscape:window-x="53"
     inkscape:window-y="65"
     inkscape:window-maximized="0"
     inkscape:current-layer="svg5" />
  <g
     inkscape:groupmode="layer"
     id="layer1"
     inkscape:label="Layer 1"
     style="fill:#000000"
     transform="matrix(1,0,0,1.2524272,-807.34271,-11.533468)"
     clip-path="url(#clipPath1841)">
    <rect
       style="fill:#000000;stroke:#000000;stroke-width:0"
       id="rect1761"
       width="1000.9837"
       height="161.09581"
       x="0"
       y="0" />
  </g>
  <g
     id="svgGroup"
     stroke-linecap="round"
     fill-rule="evenodd"
     font-size="12px"
     stroke="#000"
     stroke-width="0.25mm"
     fill="#000"
     style="display:inline;fill:#ffffff;stroke:#ffffff;stroke-width:0.25mm;stroke-opacity:1"
     transform="matrix(0.95638569,0,0,0.55125485,-788.11695,25.489836)"
     inkscape:export-filename="svgGroup.svg"
     inkscape:export-xdpi="96"
     inkscape:export-ydpi="96"
     clip-path="url(#clipPath1837)">
    <path
       d="m 834.6,120.9 1.5,-21.3 a 9266.564,9266.564 0 0 0 0.844,-11.77 Q 839.7,49.013 839.7,43.5 a 1024.757,1024.757 0 0 1 0.056,-11.1 Q 839.925,16.875 840.6,8.1 841.2,0 849,0 a 34.16,34.16 0 0 1 2.883,0.118 28.386,28.386 0 0 1 1.617,0.182 44.726,44.726 0 0 0 0.994,0.132 q 1.077,0.129 1.856,0.159 A 11.624,11.624 0 0 0 856.8,0.6 l 25.5,-0.3 q 5.434,0 8.529,0.915 A 11.07,11.07 0 0 1 892.05,1.65 9.882,9.882 0 0 1 896.498,5.458 12.629,12.629 0 0 1 897,6.3 q 2.684,5.636 6.568,14.152 A 1799.194,1799.194 0 0 1 904.5,22.5 l 11.1,24 14.1,30.9 q 3.489,7.514 8.898,19.35 a 7289.71,7289.71 0 0 1 1.302,2.85 1704.481,1704.481 0 0 0 2.904,6.33 q 3.637,7.881 5.645,11.961 a 161.627,161.627 0 0 0 0.451,0.909 725.235,725.235 0 0 0 1.786,3.653 q 3.382,6.864 4.661,8.997 a 16.017,16.017 0 0 0 0.153,0.25 l 8.4,16.5 9.3,18.3 -0.6,-17.4 -1.2,-29.4 v -9 q 0,-16.5 0.6,-33.3 0,-11.271 -0.24,-18.701 A 276.776,276.776 0 0 0 971.7,57 l -0.3,-22.8 1.2,-28.8 q 0,-3.57 2.834,-4.308 A 6.63,6.63 0 0 1 977.1,0.9 q 1.225,0 4.453,0.601 A 117.966,117.966 0 0 1 983.1,1.8 25.612,25.612 0 0 0 987.686,2.379 29.182,29.182 0 0 0 988.8,2.4 h 4.8 a 15.186,15.186 0 0 1 0.971,0.029 Q 996.164,2.532 996.75,3 a 1.759,1.759 0 0 1 0.526,0.729 Q 997.5,4.28 997.5,5.1 a 11.439,11.439 0 0 1 -0.066,1.191 q -0.065,0.618 -0.193,1.299 A 19.403,19.403 0 0 1 997.2,7.8 15.147,15.147 0 0 0 996.958,9.583 19.365,19.365 0 0 0 996.9,11.1 l -0.3,25.8 -0.6,60.6 -0.3,8.7 q 0,10.2 0.3,18.6 0.268,7.514 0.537,12.628 a 383.178,383.178 0 0 0 0.063,1.172 486.793,486.793 0 0 1 0.394,6.188 q 0.49,8.601 0.506,14.989 a 171.084,171.084 0 0 1 0,0.423 q 0,-1.2 0.9,35.7 l 0.6,16.8 v 0.6 a 9.186,9.186 0 0 1 -0.209,2.059 q -0.847,3.665 -5.109,3.375 a 10.403,10.403 0 0 1 -0.382,-0.034 3.656,3.656 0 0 0 -0.521,-0.124 q -0.913,-0.158 -2.685,-0.174 A 45.048,45.048 0 0 0 989.7,218.4 l -8.7,0.3 h -1.8 a 7.831,7.831 0 0 1 -1.154,-0.079 q -1.258,-0.188 -1.996,-0.821 -1.05,-0.9 -3.45,-5.1 -0.9,-2.1 -2.4,-6 a 176.027,176.027 0 0 0 -1.594,-3.989 Q 967.683,200.475 966.6,198 953.7,165.6 948,153.9 a 234.893,234.893 0 0 1 -3.182,-6.38 Q 937.06,131.484 918.049,89.08 A 8995.209,8995.209 0 0 1 914.7,81.6 q -6,-12.3 -13.5,-26.1 l -8.7,-15.6 0.9,28.5 0.3,17.7 a 3253.962,3253.962 0 0 1 0.234,8.017 q 0.28,10.077 0.346,15.324 a 224.939,224.939 0 0 1 0.02,2.759 q 0,24.6 0.9,49.5 l 0.3,23.4 a 182.019,182.019 0 0 0 0.038,3.507 q 0.112,5.793 0.562,14.793 l 0.6,10.5 v 0.6 q 0,3 -1.5,3.9 a 5.48,5.48 0 0 1 -1.354,0.566 q -1.2,0.334 -2.846,0.334 l -6.6,0.3 a 89.163,89.163 0 0 1 -8.226,0.774 107.383,107.383 0 0 1 -5.274,0.126 409.959,409.959 0 0 0 -4.012,0.019 q -5.738,0.056 -9.788,0.281 l -15.3,0.3 a 19.273,19.273 0 0 1 -1.944,-0.09 q -2.007,-0.205 -3.176,-0.87 a 3.548,3.548 0 0 1 -0.88,-0.69 q -1.5,-1.65 -1.8,-3.75 -0.226,-1.583 -0.452,-2.484 a 7.162,7.162 0 0 0 -0.148,-0.516 44.548,44.548 0 0 1 -0.731,-4.387 q -0.293,-2.461 -0.403,-5.288 a 90.847,90.847 0 0 1 -0.066,-3.525 291.735,291.735 0 0 1 0.042,-5.104 q 0.044,-2.505 0.134,-4.69 A 141.926,141.926 0 0 1 832.5,187.2 q 0,-10.725 0.284,-23.931 a 1717.943,1717.943 0 0 1 0.316,-12.519 1087.522,1087.522 0 0 1 0.319,-9.684 q 0.453,-12.001 1.041,-18.668 A 128.64,128.64 0 0 1 834.6,120.9 Z M 309.9,63.3 304.2,42 297.6,17.7 a 43.146,43.146 0 0 1 -0.58,-2.051 Q 296.4,13.21 296.4,11.7 a 2.077,2.077 0 0 1 0.042,-0.434 q 0.054,-0.251 0.177,-0.434 A 0.978,0.978 0 0 1 297,10.5 a 2.643,2.643 0 0 1 0.629,-0.215 q 0.294,-0.063 0.636,-0.079 A 5.051,5.051 0 0 1 298.5,10.2 h 9.3 q 5.058,0 7.166,-0.295 A 12.612,12.612 0 0 0 315,9.9 l 3.3,-0.6 a 8.252,8.252 0 0 1 0.72,-0.182 q 1.202,-0.246 2.033,0.023 a 2.271,2.271 0 0 1 1.297,1.059 8.091,8.091 0 0 1 0.501,1.058 q 0.75,1.876 1.571,5.615 A 95.891,95.891 0 0 1 324.6,17.7 q 0.6,2.4 6,21.15 5.4,18.75 12.6,36.75 5.7,17.7 10.5,29.4 l 5.1,13.2 1.2,-3.9 3,-8.4 a 43.093,43.093 0 0 0 0.893,-2.418 Q 366.056,97.144 370.2,81.3 l 2.1,-7.8 a 95.474,95.474 0 0 1 0.727,-2.554 q 1.458,-4.899 4.673,-14.546 3.216,-9.646 5.376,-15.952 A 812.898,812.898 0 0 1 384.3,36.9 q 1.149,-2.526 2.649,-6.987 A 187.895,187.895 0 0 0 387.9,27 Q 394.674,9.804 398.281,7.543 A 1.943,1.943 0 0 1 399.3,7.2 q 1.983,0 2.629,0.535 A 1.036,1.036 0 0 1 402,7.8 q 0.542,0.542 0.839,1.817 A 9.183,9.183 0 0 1 402.9,9.9 q 0.293,1.467 0.587,2.36 a 9.681,9.681 0 0 0 0.013,0.04 133.724,133.724 0 0 0 0.492,1.906 q 0.223,0.838 0.475,1.749 A 231.549,231.549 0 0 0 405,17.85 q 0.9,3.15 1.5,7.05 10.268,26.698 13.508,34.944 A 407.218,407.218 0 0 0 420.9,62.1 l 9.3,20.1 5.4,12 a 20.439,20.439 0 0 1 0.366,-1.013 q 0.417,-1.061 0.834,-1.687 l 3,-7.5 a 12.731,12.731 0 0 0 0.267,-0.98 q 0.671,-2.788 2.133,-11.32 1.934,-12.155 3.359,-17.951 A 60.464,60.464 0 0 1 445.8,52.8 q 1.149,-4.364 3.704,-11.717 a 420.353,420.353 0 0 1 1.696,-4.783 348.297,348.297 0 0 0 1.782,-5.358 q 2.349,-7.275 3.08,-10.942 a 22.346,22.346 0 0 0 0.238,-1.4 28.232,28.232 0 0 1 0.652,-3.701 q 1.023,-4.045 3.147,-5.683 A 5.407,5.407 0 0 1 463.5,8.1 38.949,38.949 0 0 1 468.939,7.164 52.147,52.147 0 0 1 474.3,6.9 q 2.605,0 3.627,0.227 A 2.755,2.755 0 0 1 478.2,7.2 7.055,7.055 0 0 1 479.503,7.31 Q 481.8,7.744 481.8,9.9 l -0.6,3.6 -2.7,8.4 a 293.285,293.285 0 0 1 -1.012,3.807 Q 476.025,31.05 474.9,34.2 a 4828.352,4828.352 0 0 1 -1.209,4.346 q -1.078,3.867 -2.391,8.554 -2.1,7.5 -4.2,15.3 -4.025,15.834 -7.09,26.386 a 401.508,401.508 0 0 1 -0.71,2.414 112.179,112.179 0 0 0 -0.919,4.022 q -0.966,4.583 -2.013,10.96 a 472.72,472.72 0 0 0 -0.968,6.168 871.718,871.718 0 0 0 -0.714,4.826 q -1.386,9.574 -1.386,11.524 0,7.2 -4.2,17.4 a 43.482,43.482 0 0 0 -0.728,2.486 q -1.428,5.361 -3.772,17.314 a 2456.271,2456.271 0 0 0 -1.291,6.628 q -1.47,7.609 -2.218,11.816 A 212.84,212.84 0 0 0 440.7,186.6 q -2.475,16.336 -3.725,20.624 a 6.523,6.523 0 0 1 -0.475,1.276 338.374,338.374 0 0 1 -0.246,1.456 q -0.111,0.65 -0.237,1.374 a 669.29,669.29 0 0 1 -0.267,1.52 q -0.364,2.062 -0.727,3.241 a 9.085,9.085 0 0 1 -0.173,0.509 2.986,2.986 0 0 1 -0.236,0.497 q -0.157,0.261 -0.351,0.425 a 1.145,1.145 0 0 1 -0.763,0.278 7.564,7.564 0 0 1 -1.243,-0.095 q -1.452,-0.242 -2.207,-1.105 a 7.116,7.116 0 0 1 -0.552,-0.739 q -0.844,-1.269 -2.038,-3.804 a 76.232,76.232 0 0 1 -0.26,-0.557 12.862,12.862 0 0 1 -1.164,-1.937 q -2.526,-4.866 -8.356,-19.908 a 1079.494,1079.494 0 0 1 -2.78,-7.255 190.511,190.511 0 0 1 -1.083,-2.879 q -2.45,-6.638 -8.634,-24.077 A 9164.468,9164.468 0 0 1 402.3,147.3 q -1.378,-4.823 -4.163,-12.284 A 378.386,378.386 0 0 0 396.3,130.2 l -4.2,-11.1 -4.2,8.4 q -2.763,6.078 -8.069,19.789 A 1211.535,1211.535 0 0 0 378.9,149.7 l -2.4,6 a 141.122,141.122 0 0 0 -1.776,5.642 q -2.703,9.146 -6.908,26.127 A 1761.21,1761.21 0 0 0 365.1,198.6 l -2.1,8.7 a 27.923,27.923 0 0 1 -2.493,6.402 31.369,31.369 0 0 1 -0.357,0.648 18.577,18.577 0 0 1 -0.773,1.26 q -1.263,1.867 -2.318,2.143 a 1.416,1.416 0 0 1 -0.359,0.047 4.653,4.653 0 0 1 -1.292,-0.169 3.334,3.334 0 0 1 -1.858,-1.331 q -1.05,-1.5 -1.95,-4.8 a 10.352,10.352 0 0 1 -0.513,-1.332 q -1.249,-3.824 -3.687,-15.768 -1.2,-4.8 -3.6,-14.55 -2.4,-9.75 -3.6,-12.75 -2.067,-5.053 -4.662,-13.711 A 368.311,368.311 0 0 1 333.9,147.75 q -3.08,-10.91 -3.964,-14.241 a 68.424,68.424 0 0 1 -0.236,-0.909 47.626,47.626 0 0 1 -1.216,-3.434 q -2.713,-8.376 -9.391,-33.007 A 3769.825,3769.825 0 0 1 315.9,84.3 q -1.8,-5.7 -3.3,-11.25 a 897.132,897.132 0 0 0 -1.255,-4.597 Q 310.575,65.663 309.9,63.3 Z M 679.2,189 v -41.1 q 0,-6 0.45,-11.7 0.442,-5.596 0.45,-8.301 a 33.359,33.359 0 0 0 0,-0.099 316.365,316.365 0 0 0 1.123,-19.924 274.373,274.373 0 0 0 0.077,-6.476 q 0,-15.6 -0.9,-24.6 -0.6,-10.2 -0.6,-18.6 a 951.425,951.425 0 0 1 0.127,-15.061 q 0.105,-6.644 0.299,-13.904 A 1671.373,1671.373 0 0 1 680.7,14.1 a 15.88,15.88 0 0 1 0.088,-1.739 q 0.2,-1.81 0.857,-2.844 A 3.181,3.181 0 0 1 682.2,8.85 q 1.5,-1.35 4.2,-1.35 l 4.5,0.3 q 2.599,0 8.256,0.417 a 347.414,347.414 0 0 1 0.444,0.033 141.168,141.168 0 0 0 4.88,0.275 q 2.191,0.087 4.646,0.131 A 289.647,289.647 0 0 0 714.3,8.7 159.302,159.302 0 0 0 722.231,8.489 Q 726.626,8.27 731.57,7.821 A 305.826,305.826 0 0 0 737.7,7.2 1051.888,1051.888 0 0 1 744.271,6.733 q 8.91,-0.604 13.342,-0.71 A 71.258,71.258 0 0 1 759.3,6 q 12.3,0 22.5,0.9 l 10.8,0.3 q 3.9,0 5.1,1.8 0.941,1.412 1.144,4.668 A 31.149,31.149 0 0 1 798.9,15.6 q 0,2.7 0.6,9.3 0.6,7.8 0.6,13.5 a 70.507,70.507 0 0 1 -0.285,6.466 56.513,56.513 0 0 1 -0.615,4.634 7.674,7.674 0 0 1 -0.303,1.754 q -0.726,2.344 -3.051,2.687 A 5.79,5.79 0 0 1 795,54 6.701,6.701 0 0 1 794.174,53.943 Q 793.152,53.815 791.7,53.4 790.092,52.941 789.012,52.657 A 54.315,54.315 0 0 0 788.4,52.5 q -4.5,-0.9 -26.1,-0.9 l -11.4,-0.3 a 73.378,73.378 0 0 0 -2.175,-0.131 q -2.475,-0.116 -5.907,-0.152 A 314.944,314.944 0 0 0 739.5,51 q -5.4,0 -8.1,0.3 -7.734,0.516 -13.918,0.589 A 169.1,169.1 0 0 1 715.5,51.9 l -15.9,-0.3 a 8.362,8.362 0 0 0 -0.873,0.042 q -0.868,0.092 -1.333,0.385 a 1.082,1.082 0 0 0 -0.494,0.623 4.52,4.52 0 0 0 -0.117,0.596 q -0.139,0.997 -0.173,3.006 a 82.059,82.059 0 0 0 -0.01,1.348 165.49,165.49 0 0 1 -0.042,3.839 q -0.044,1.89 -0.134,3.551 A 84.083,84.083 0 0 1 696.3,66.9 q -0.6,12 -0.6,19.5 v 17.7 a 219.9,219.9 0 0 0 0.019,2.963 q 0.043,3.187 0.185,5.385 A 48.253,48.253 0 0 0 696,113.7 q 2.39,0.299 8.054,0.3 a 205.244,205.244 0 0 0 0.046,0 103.279,103.279 0 0 0 2.748,0.117 q 4.464,0.14 12.791,0.173 a 1388.584,1388.584 0 0 0 5.461,0.01 q 5.053,0 13.623,-0.351 a 852.213,852.213 0 0 0 5.577,-0.249 780.482,780.482 0 0 1 3.884,-0.233 q 6.372,-0.367 8.716,-0.367 4.2,0 8.4,0.45 3.216,0.345 5.2,0.426 a 27.277,27.277 0 0 0 1.1,0.024 q 3.316,0 3.813,2.603 a 5.328,5.328 0 0 1 0.087,0.997 13.579,13.579 0 0 1 -0.024,0.758 q -0.046,0.823 -0.183,1.964 a 57.451,57.451 0 0 1 -0.093,0.728 28.69,28.69 0 0 0 -0.171,1.707 q -0.129,1.781 -0.129,4.143 l 0.3,15.9 q 0,2.065 -0.351,3.165 a 3.051,3.051 0 0 1 -0.249,0.585 1.99,1.99 0 0 1 -1.365,0.976 3.396,3.396 0 0 1 -0.735,0.074 5.129,5.129 0 0 1 -0.6,-0.039 q -0.643,-0.077 -1.532,-0.301 a 22.397,22.397 0 0 1 -0.418,-0.11 15.383,15.383 0 0 0 -1.174,-0.274 Q 767.85,146.7 767.1,146.7 a 83.784,83.784 0 0 1 -1.521,-0.016 q -2.902,-0.054 -8.529,-0.284 a 271.52,271.52 0 0 0 -4.003,-0.131 q -4.467,-0.116 -10.329,-0.152 a 910.217,910.217 0 0 0 -5.618,-0.017 260.392,260.392 0 0 0 -9.619,0.169 q -4.746,0.176 -8.942,0.535 a 137.875,137.875 0 0 0 -4.839,0.496 623.678,623.678 0 0 1 -3.438,0.408 q -6.856,0.792 -8.562,0.792 a 57.053,57.053 0 0 1 -1.142,-0.01 q -2.211,-0.045 -2.731,-0.277 A 0.678,0.678 0 0 1 697.8,148.2 11.62,11.62 0 0 1 697.24,148.188 Q 696.239,148.139 696,147.9 v 30 q 1.948,0 3.121,-0.258 A 6.442,6.442 0 0 0 699.3,177.6 l 8.4,-0.3 35.4,-0.3 q 8.269,0 13.9,0.176 a 196.6,196.6 0 0 1 3.2,0.124 l 20.7,0.3 12.6,-0.3 a 12.212,12.212 0 0 1 1.627,0.1 q 2.268,0.306 3.173,1.55 1.2,1.65 1.2,4.65 l -0.3,6 -0.3,21 q 0,3.416 -1.063,4.933 a 2.785,2.785 0 0 1 -1.037,0.917 7.466,7.466 0 0 1 -1.572,0.56 q -1.723,0.421 -4.186,0.349 A 26.367,26.367 0 0 1 790.8,217.35 q -3.9,-0.15 -6.3,-0.15 a 943.518,943.518 0 0 1 -9.169,-0.042 q -3.609,-0.035 -6.867,-0.099 A 495.864,495.864 0 0 1 762.3,216.9 l -30.6,-0.3 a 94.516,94.516 0 0 0 -1.35,0.014 q -6.3,0.099 -34.65,0.886 l -11.4,0.3 -1.8,0.3 q -1.461,0 -1.934,-0.692 A 1.228,1.228 0 0 1 680.4,217.05 q -0.278,-0.974 -0.298,-3.627 A 55.872,55.872 0 0 1 680.1,213 a 49.34,49.34 0 0 1 -0.131,-1.931 q -0.151,-2.969 -0.167,-7.963 A 378.398,378.398 0 0 1 679.8,201.9 q 0,-2.4 -0.3,-5.25 -0.286,-2.72 -0.299,-7.215 A 149.386,149.386 0 0 1 679.2,189 Z M 0,208.2 0.3,141.6 v -14.4 q 0,-11.4 0.9,-20.7 L 2.1,69.9 A 372.671,372.671 0 0 1 2.119,66.366 Q 2.158,62.325 2.276,56.648 A 1707.262,1707.262 0 0 1 2.4,51.15 Q 2.691,39.078 2.982,35.609 A 29.957,29.957 0 0 1 3,35.4 Q 3.295,33.04 3.3,27.199 A 236.526,236.526 0 0 0 3.3,27 Q 3.3,16.5 2.4,12 A 2.643,2.643 0 0 1 2.185,11.372 Q 2.121,11.078 2.106,10.736 A 5.051,5.051 0 0 1 2.1,10.5 Q 2.1,8.7 5.4,7.8 8.207,6.958 19.683,5.459 A 613.067,613.067 0 0 1 21.3,5.25 218.518,218.518 0 0 1 33.417,4.026 Q 39.322,3.604 44.617,3.6 a 133.663,133.663 0 0 1 0.083,0 115.612,115.612 0 0 1 17.811,1.287 Q 78.793,7.43 89.85,15 a 33.691,33.691 0 0 1 11.951,15.17 Q 106.5,41.307 106.5,58.2 A 76.683,76.683 0 0 1 104.35,76.893 52.557,52.557 0 0 1 89.1,103.2 q -7.8,6.6 -17.1,9.9 a 105.064,105.064 0 0 1 17.103,8.109 q 9.234,5.384 18.747,13.041 a 47.703,47.703 0 0 1 16.637,27.248 74.947,74.947 0 0 1 1.813,17.002 q 0,19.2 -13.65,28.05 Q 99,215.4 85.05,217.05 71.1,218.7 55.8,218.7 l -29.1,0.6 -18.3,0.3 q -2.947,0 -4.763,-1.131 A 5.51,5.51 0 0 1 1.8,216.6 Q 0.497,214.429 0.137,211.001 A 26.881,26.881 0 0 1 0,208.2 Z m 507.9,-0.9 0.3,-7.8 -0.6,-15 -0.3,-13.5 -0.3,-9 a 385.437,385.437 0 0 1 -0.861,-15.547 q -0.297,-8.167 -0.334,-17.241 A 639.706,639.706 0 0 1 505.8,126.6 q 0,-11.7 1.2,-30.9 1.074,-17.175 1.187,-28.828 A 275.151,275.151 0 0 0 508.2,64.2 L 507.9,24 q -0.3,-4.8 -0.3,-10.8 a 3.612,3.612 0 0 1 0.612,-2.116 q 1.019,-1.465 3.738,-1.934 a 43.881,43.881 0 0 1 6.583,-0.615 Q 519.8,8.51 521.1,8.55 q 3.939,0.123 5.858,0.146 A 65.349,65.349 0 0 0 527.7,8.7 l 10.8,-0.6 q 12.6,-0.6 20.4,-0.6 18.3,0 39,9.75 18.498,8.713 32.923,30.243 a 135.349,135.349 0 0 1 3.377,5.307 96.095,96.095 0 0 1 10.244,24.555 q 3.18,11.655 4.472,25.562 A 217.396,217.396 0 0 1 649.8,123 a 135.251,135.251 0 0 1 -1.884,23.36 q -2.206,12.562 -6.998,22.499 a 62.502,62.502 0 0 1 -10.468,15.491 115.436,115.436 0 0 1 -14.787,13.529 q -9.609,7.285 -19.664,11.136 a 66.785,66.785 0 0 1 -6.199,2.035 q -13.978,3.839 -24.855,5.159 A 87.969,87.969 0 0 1 554.4,216.9 l -24.6,0.3 a 255.231,255.231 0 0 1 -5.372,0.183 q -2.414,0.059 -5.121,0.088 a 528.401,528.401 0 0 1 -5.707,0.029 4.694,4.694 0 0 1 -4.489,-2.964 Q 507.9,212.002 507.9,207.3 Z M 197.147,221.241 A 77.821,77.821 0 0 0 219,224.1 46.272,46.272 0 0 0 241.454,218.595 51.717,51.717 0 0 0 255.9,206.7 q 15,-17.4 22.2,-42.75 a 203.583,203.583 0 0 0 2.806,-11.026 174.643,174.643 0 0 0 4.394,-38.324 q 0,-29.7 -4.2,-53.25 -4.2,-23.55 -19.2,-40.8 a 45.039,45.039 0 0 0 -8.934,-7.885 q -8.04,-5.393 -18.781,-7.68 A 83.032,83.032 0 0 0 216.9,3.3 53.616,53.616 0 0 0 199.793,6.171 70.299,70.299 0 0 0 185.55,12.9 q -10.582,6.45 -18.997,19.401 A 109.343,109.343 0 0 0 158.85,46.5 101.037,101.037 0 0 0 153.094,62.982 q -2.66,10.213 -3.958,22.405 a 236.957,236.957 0 0 0 -1.236,25.013 239.593,239.593 0 0 0 0.086,6.437 209.686,209.686 0 0 0 14.014,71.113 74.591,74.591 0 0 0 0.32,0.808 q 10.205,25.289 34.827,32.483 z M 37.8,127.5 l 0.6,19.2 0.6,16.2 q 0,4.2 -0.3,6 l -0.3,7.8 0.6,17.7 0.6,13.8 q 0,3.6 1.35,4.35 1.287,0.715 3.664,0.612 a 15.225,15.225 0 0 0 0.236,-0.012 q 2.455,-0.144 3.659,-0.149 A 20.443,20.443 0 0 1 48.6,213 147.421,147.421 0 0 0 63.975,212.253 q 18.16,-1.91 28.725,-8.703 a 35.973,35.973 0 0 0 8.369,-7.259 27.504,27.504 0 0 0 6.331,-18.091 q 0,-38.764 -32.08,-53.538 A 73.047,73.047 0 0 0 72.9,123.6 q -15.3,-5.7 -34.5,-5.4 a 4.903,4.903 0 0 0 -0.171,0.69 Q 38.1,119.616 38.1,120.6 a 8.984,8.984 0 0 0 -0.117,0.843 Q 37.8,123.282 37.8,127.5 Z M 40.5,12.3 39.9,31.5 q -0.6,21.6 -0.6,32.1 v 34.2 a 51.956,51.956 0 0 1 -0.042,2.145 q -0.07,1.699 -0.258,3.105 a 54.008,54.008 0 0 0 -0.131,1.06 q -0.129,1.141 -0.16,1.936 a 11.983,11.983 0 0 0 -0.009,0.454 17.341,17.341 0 0 0 0.011,0.628 q 0.045,1.257 0.289,1.622 a 0.672,0.672 0 0 0 0.264,0.218 q 0.458,0.232 1.536,0.232 a 32.93,32.93 0 0 0 3.653,-0.232 Q 50.147,108.324 59.4,105.9 A 50.725,50.725 0 0 0 73.668,99.578 69.964,69.964 0 0 0 83.7,91.8 34.785,34.785 0 0 0 93.686,74.812 q 1.5,-5.602 1.687,-12.281 A 68.783,68.783 0 0 0 95.4,60.6 99.698,99.698 0 0 0 94.807,49.328 Q 93.291,36.047 87.9,28.5 A 36.762,36.762 0 0 0 80.189,20.446 30.586,30.586 0 0 0 69.15,15.15 80.842,80.842 0 0 0 59.901,13.421 Q 55.124,12.79 49.583,12.515 A 183.105,183.105 0 0 0 40.5,12.3 Z m 519,141 A 53.73,53.73 0 0 0 572.315,144.583 62.246,62.246 0 0 0 574.5,142.5 49.617,49.617 0 0 0 585.39,127.549 45.285,45.285 0 0 0 589.5,108.3 40.021,40.021 0 0 0 586.744,93.198 36.835,36.835 0 0 0 575.1,78 q -6.3,-4.8 -14.1,-7.2 0.6,6.6 0.6,10.2 0,5.7 -0.6,16.5 -0.577,9.819 -0.599,14.634 A 81.732,81.732 0 0 0 560.4,112.5 q 0,7.509 -0.556,23.914 A 2185.945,2185.945 0 0 1 559.8,137.7 q -0.297,5.055 -0.3,15.413 a 727.034,727.034 0 0 0 0,0.187 z m -342.9,-5.4 q 8.1,0 12,-9 3.595,-8.296 3.876,-19.653 A 78.738,78.738 0 0 0 232.5,117.3 65.075,65.075 0 0 0 231.73,107.041 47.179,47.179 0 0 0 228.75,96.3 q -1.866,-4.478 -4.363,-6.728 A 8.275,8.275 0 0 0 218.7,87.3 a 9.68,9.68 0 0 0 -7.666,3.746 q -1.306,1.55 -2.38,3.743 A 28.897,28.897 0 0 0 207.45,97.65 63.478,63.478 0 0 0 203.832,115.558 73.98,73.98 0 0 0 203.7,120 q 0,8.643 1.185,15.064 a 44.79,44.79 0 0 0 1.215,5.036 12.958,12.958 0 0 0 1.856,3.847 q 2.377,3.266 6.727,3.834 a 14.815,14.815 0 0 0 1.917,0.119 z"
       vector-effect="non-scaling-stroke"
       id="path2"
       style="fill:#ffffff;stroke:#ffffff;stroke-opacity:1" />
  </g>
</svg>
